<?xml version="1.0" standalone="no"?>
<!DOCTYPE svg PUBLIC "-//W3C//DTD SVG 20010904//EN"
 "http://www.w3.org/TR/2001/REC-SVG-20010904/DTD/svg10.dtd">
<svg version="1.0" xmlns="http://www.w3.org/2000/svg"
 width="100.000000pt" height="67.000000pt" viewBox="0 0 100.000000 67.000000"
 preserveAspectRatio="xMidYMid meet">

<g transform="translate(0.000000,67.000000) scale(0.100000,-0.100000)"
fill="#000000" stroke="none">
<path d="M315 650 c-128 -19 -231 -117 -276 -261 -51 -164 13 -334 138 -368
49 -14 82 -7 140 25 130 74 129 286 -1 345 -50 23 -105 24 -153 4 -19 -8 -37
-15 -39 -15 -11 0 -1 33 27 88 39 78 105 137 176 158 29 8 53 20 53 25 0 5 -3
8 -7 8 -5 -1 -31 -5 -58 -9z m-61 -294 c43 -18 69 -73 74 -157 6 -101 -26
-149 -100 -149 -74 0 -118 69 -126 197 l-5 83 44 20 c52 23 69 24 113 6z"/>
<path d="M705 480 c-72 -9 -87 -15 -143 -52 -112 -76 -117 -242 -10 -348 45
-45 92 -63 165 -63 113 1 202 75 211 177 6 69 -24 124 -93 176 l-47 35 96 3
96 3 0 39 0 40 -107 -1 c-60 -1 -135 -5 -168 -9z m64 -105 c61 -70 80 -135 61
-214 -16 -66 -57 -106 -110 -106 -52 0 -89 29 -122 95 -57 111 -23 227 74 250
56 13 65 11 97 -25z"/>
</g>
</svg>
