<?xml version="1.0" standalone="no"?>
<!DOCTYPE svg PUBLIC "-//W3C//DTD SVG 20010904//EN"
 "http://www.w3.org/TR/2001/REC-SVG-20010904/DTD/svg10.dtd">
<svg version="1.0" xmlns="http://www.w3.org/2000/svg"
 width="225.000000pt" height="225.000000pt" viewBox="0 0 225.000000 225.000000"
 preserveAspectRatio="xMidYMid meet">

<g transform="translate(0.000000,225.000000) scale(0.100000,-0.100000)"
fill="#000000" stroke="none">
<path d="M1020 2243 c-29 -11 -59 -46 -65 -74 l-7 -29 -102 0 c-107 0 -123 -6
-139 -52 -5 -15 -27 -17 -180 -20 -171 -3 -174 -3 -209 -30 -72 -55 -68 6 -68
-1003 0 -897 0 -908 21 -944 11 -20 36 -48 56 -61 l37 -25 761 0 761 0 37 25
c20 13 45 41 56 61 21 36 21 47 21 944 0 1009 4 948 -68 1003 -35 27 -38 27
-209 30 -153 3 -175 5 -180 20 -16 46 -32 52 -139 52 l-102 0 -7 29 c-3 16
-17 39 -31 52 -23 22 -36 24 -127 26 -56 1 -109 0 -117 -4z m208 -85 c3 -16
-7 -18 -102 -18 -82 0 -106 3 -106 13 0 25 13 28 109 25 82 -3 96 -6 99 -20z
m252 -143 c0 -39 -6 -78 -15 -95 -29 -57 -47 -60 -342 -60 -250 0 -270 1 -301
20 -41 25 -52 54 -52 136 l0 64 355 0 355 0 0 -65z m-770 -45 l0 -40 -140 0
c-127 0 -142 -2 -160 -20 -20 -20 -20 -33 -20 -875 l0 -854 22 -21 c21 -20 31
-20 713 -20 682 0 692 0 713 20 l22 21 0 854 c0 842 0 855 -20 875 -18 18 -33
20 -160 20 l-140 0 0 40 0 40 155 0 c120 0 163 -4 185 -15 63 -33 61 15 58
-971 l-3 -896 -33 -29 -32 -29 -745 0 -745 0 -32 29 -33 29 -3 894 c-2 672 1
900 10 922 23 57 56 66 231 66 l157 0 0 -40z m46 -121 c40 -46 66 -49 369 -49
303 0 329 3 369 49 18 20 29 21 163 21 l143 0 0 -830 0 -830 -675 0 -675 0 0
830 0 830 143 0 c134 0 145 -1 163 -21z"/>
<path d="M612 1638 c-8 -8 -12 -59 -12 -165 0 -140 2 -153 19 -163 11 -5 80
-10 153 -10 185 0 178 -7 178 171 0 78 -5 149 -10 160 -10 17 -23 19 -163 19
-106 0 -157 -4 -165 -12z m268 -158 l0 -110 -110 0 -110 0 0 103 c0 57 3 107
7 110 3 4 53 7 110 7 l103 0 0 -110z"/>
<path d="M1026 1594 c-13 -33 13 -45 88 -42 68 3 71 4 71 28 0 24 -2 25 -76
28 -64 2 -78 0 -83 -14z"/>
<path d="M1026 1454 c-16 -42 2 -44 298 -42 l281 3 3 28 3 27 -289 0 c-258 0
-291 -2 -296 -16z"/>
<path d="M620 1170 c-18 -18 -20 -33 -20 -148 0 -178 -6 -172 170 -172 138 0
139 0 159 26 25 31 27 62 7 90 -19 25 -50 8 -54 -30 l-3 -26 -110 0 -110 0 3
108 3 107 108 3 c123 3 128 -1 70 -60 l-37 -38 -31 30 c-35 34 -65 32 -65 -3
0 -22 76 -107 95 -107 6 0 57 47 114 104 90 90 103 107 91 120 -16 20 -44 20
-60 1 -12 -14 -15 -14 -30 0 -13 12 -44 15 -148 15 -119 0 -134 -2 -152 -20z"/>
<path d="M1026 1105 c-3 -8 -3 -22 0 -30 5 -13 37 -15 204 -15 123 0 201 4
205 10 3 6 3 19 0 30 -6 19 -15 20 -205 20 -167 0 -199 -2 -204 -15z"/>
<path d="M1031 966 c-6 -7 -9 -21 -5 -30 6 -15 35 -16 293 -14 l286 3 0 25 0
25 -281 3 c-230 2 -283 0 -293 -12z"/>
<path d="M607 723 c-13 -12 -8 -308 5 -321 8 -8 59 -12 165 -12 140 0 153 2
163 19 5 11 10 79 10 151 0 72 -5 140 -10 151 -10 18 -23 19 -169 19 -87 0
-161 -3 -164 -7z m273 -163 l0 -111 -107 3 -108 3 -3 108 -3 107 111 0 110 0
0 -110z"/>
<path d="M1026 644 c-13 -33 13 -44 99 -44 86 0 112 11 99 44 -9 24 -189 24
-198 0z"/>
<path d="M1026 504 c-16 -42 2 -44 298 -42 l281 3 0 25 0 25 -286 3 c-258 2
-287 1 -293 -14z"/>
</g>
</svg>
