<?xml version='1.0' encoding='UTF-8'?>
<svg x="0px" y="0px" viewBox="0 0 32 32" version="1.1" xmlns="http://www.w3.org/2000/svg" xmlns:xlink="http://www.w3.org/1999/xlink" xml:space="preserve" id="PageMarginsWide" style="enable-background:new 0 0 32 32">
  <style type="text/css">
	.Blue{fill:#1177D7;}
	.Black{fill:#727272;}
</style>
  <path d="M27,2H5C4.4,2,4,2.4,4,3v26c0,0.6,0.4,1,1,1h22c0.6,0,1-0.4,1-1V3C28,2.4,27.6,2,27,2z M26,28H6V4h20V28z" class="Black" />
  <path d="M26,10V8h-6V4h-2v4h-4V4h-2v4H6v2h6v12H6v2h6v4h2v-4h4v4h2v-4h6v-2h-6V10H26z M18,22h-4V10h4V22z" class="Blue" />
</svg>