<?xml version='1.0' encoding='UTF-8'?>
<svg x="0px" y="0px" viewBox="0 0 32 32" version="1.1" xmlns="http://www.w3.org/2000/svg" xmlns:xlink="http://www.w3.org/1999/xlink" xml:space="preserve" id="Layer_1" style="enable-background:new 0 0 32 32">
  <style type="text/css">
	.Blue{fill:#1177D7;}
	.Yellow{fill:#FFB115;}
	.Black{fill:#727272;}
	.Green{fill:#039C23;}
	.Red{fill:#D11C1C;}
	.st0{opacity:0.75;}
	.st1{opacity:0.5;}
</style>
  <g id="Database">
    <path d="M16,24c-5.5,0-10-1.8-10-4v4c0,2.2,4.5,4,10,4s10-1.8,10-4v-4C26,22.2,21.5,24,16,24z" class="Yellow" />
    <path d="M16,18c-5.5,0-10-1.8-10-4v4c0,2.2,4.5,4,10,4s10-1.8,10-4v-4C26,16.2,21.5,18,16,18z" class="Yellow" />
    <path d="M16,4C10.5,4,6,5.8,6,8v4c0,2.2,4.5,4,10,4s10-1.8,10-4V8C26,5.8,21.5,4,16,4z" class="Yellow" />
  </g>
</svg>