<?xml version="1.0" standalone="no"?>
<!DOCTYPE svg PUBLIC "-//W3C//DTD SVG 20010904//EN"
 "http://www.w3.org/TR/2001/REC-SVG-20010904/DTD/svg10.dtd">
<svg version="1.0" xmlns="http://www.w3.org/2000/svg"
 width="150.000000pt" height="150.000000pt" viewBox="0 0 150.000000 150.000000"
 preserveAspectRatio="xMidYMid meet">

<g transform="translate(0.000000,150.000000) scale(0.100000,-0.100000)"
fill="#000000" stroke="none">
<path d="M655 1475 c-14 -13 -25 -29 -25 -34 0 -6 -33 -11 -72 -13 -65 -3 -74
-6 -83 -25 -9 -22 -15 -23 -118 -23 -119 0 -154 -11 -179 -58 -10 -20 -13
-147 -13 -633 0 -601 0 -608 21 -636 40 -53 32 -53 562 -53 418 0 497 2 522
15 63 33 60 0 60 672 0 419 -3 620 -11 636 -21 45 -57 57 -178 57 -62 0 -111
4 -111 9 0 27 -34 41 -96 41 -59 0 -65 2 -74 24 -13 35 -40 46 -115 46 -57 0
-69 -3 -90 -25z m149 -21 c36 -14 12 -24 -54 -24 -64 0 -81 6 -63 23 8 9 96 9
117 1z m186 -104 c0 -51 -22 -96 -52 -104 -13 -3 -103 -6 -201 -6 -176 0 -178
0 -202 25 -20 19 -25 34 -25 75 l0 50 240 0 240 0 0 -40z m-520 -35 c0 -25 0
-25 -93 -25 -59 0 -97 -4 -105 -12 -9 -9 -12 -152 -12 -582 0 -516 2 -571 17
-588 15 -17 43 -18 467 -18 393 0 454 2 474 16 l22 15 0 569 c0 504 -2 570
-16 584 -12 12 -37 16 -105 16 -88 0 -89 0 -89 25 l0 25 104 0 c89 0 107 -3
130 -21 l26 -20 0 -604 c0 -579 -1 -604 -19 -626 l-19 -24 -500 0 c-478 0
-501 1 -521 19 -21 19 -21 22 -21 627 l0 608 26 20 c23 18 41 21 130 21 l104
0 0 -25z m46 -90 c36 -25 40 -25 234 -25 194 0 198 0 234 25 33 22 47 25 126
25 l90 0 0 -555 0 -555 -450 0 -450 0 0 555 0 555 90 0 c79 0 93 -3 126 -25z"/>
<path d="M404 1087 c-2 -7 -3 -58 -2 -113 l3 -99 110 0 110 0 0 110 0 110
-108 3 c-83 2 -109 0 -113 -11z m181 -102 l0 -70 -72 -3 -73 -3 0 76 0 76 73
-3 72 -3 0 -70z"/>
<path d="M691 1071 c-8 -5 -11 -16 -8 -26 5 -12 17 -15 54 -13 40 3 48 6 48
23 0 16 -8 20 -40 23 -22 1 -46 -2 -54 -7z"/>
<path d="M685 970 c-16 -25 14 -30 195 -30 152 0 189 3 193 14 3 8 3 17 0 20
-11 11 -381 7 -388 -4z"/>
<path d="M406 775 c-8 -21 -8 -168 0 -189 5 -13 24 -16 103 -16 106 0 121 7
121 52 0 21 -5 28 -20 28 -13 0 -20 -7 -20 -20 0 -18 -7 -20 -75 -20 l-75 0 0
70 0 70 75 0 c41 0 75 -4 75 -8 0 -5 -11 -19 -25 -32 -23 -22 -26 -22 -43 -7
-22 20 -52 22 -52 4 0 -7 16 -28 35 -47 l35 -34 71 71 c39 40 69 76 66 80 -3
5 -64 10 -135 12 -112 2 -130 0 -136 -14z"/>
<path d="M685 739 c-15 -24 16 -30 141 -27 107 3 129 6 129 18 0 12 -23 15
-132 18 -89 2 -134 -1 -138 -9z"/>
<path d="M685 640 c-16 -25 14 -30 195 -30 152 0 189 3 193 14 3 8 3 17 0 20
-11 11 -381 7 -388 -4z"/>
<path d="M404 477 c-2 -7 -3 -58 -2 -113 l3 -99 110 0 110 0 0 110 0 110 -108
3 c-83 2 -109 0 -113 -11z m186 -102 l0 -75 -75 0 -75 0 0 75 0 75 75 0 75 0
0 -75z"/>
<path d="M685 430 c-13 -21 12 -31 71 -28 44 2 59 7 59 18 0 19 -119 28 -130
10z"/>
<path d="M685 340 c-16 -25 14 -30 194 -30 103 0 190 3 194 6 3 3 3 12 0 20
-4 11 -41 14 -193 14 -115 0 -191 -4 -195 -10z"/>
</g>
</svg>
